<?xml version="1.0" encoding="utf-8"?>
<!-- Generator: Adobe Illustrator 19.2.1, SVG Export Plug-In . SVG Version: 6.00 Build 0)  -->
<svg version="1.1" id="layer" xmlns="http://www.w3.org/2000/svg" xmlns:xlink="http://www.w3.org/1999/xlink" x="0px" y="0px"
	 viewBox="0 0 652 652" style="enable-background:new 0 0 652 652;" xml:space="preserve">
<style type="text/css">
	.st0{fill:#002A3A;}
</style>
<path class="st0" d="M165.1,310.2c-8.2,0-14.9,6.7-14.9,14.9s6.7,14.9,14.9,14.9c8.2,0,14.9-6.7,14.9-14.9S173.3,310.2,165.1,310.2
	 M131.7,311.9c-7.3,0-13.2,5.9-13.2,13.2s5.9,13.2,13.2,13.2c7.3,0,13.2-5.9,13.2-13.2S139,311.9,131.7,311.9 M131.7,278.3
	c-7.3,0-13.2,5.9-13.2,13.2s5.9,13.2,13.2,13.2c7.3,0,13.2-5.9,13.2-13.2S139,278.3,131.7,278.3 M131.7,345.3
	c-7.3,0-13.2,5.9-13.2,13.2c0,7.3,5.9,13.2,13.2,13.2c7.3,0,13.2-5.9,13.2-13.2C144.9,351.2,139,345.3,131.7,345.3 M98.3,313.5
	c-6.4,0-11.6,5.2-11.6,11.6s5.2,11.6,11.6,11.6c6.4,0,11.6-5.2,11.6-11.6S104.7,313.5,98.3,313.5 M98.3,280
	c-6.4,0-11.6,5.2-11.6,11.6s5.2,11.6,11.6,11.6c6.4,0,11.6-5.2,11.6-11.6S104.7,280,98.3,280 M98.3,347.1c-6.4,0-11.6,5.2-11.6,11.6
	c0,6.4,5.2,11.6,11.6,11.6c6.4,0,11.6-5.2,11.6-11.6C109.8,352.3,104.7,347.1,98.3,347.1 M98.3,380.6c-6.4,0-11.6,5.2-11.6,11.6
	c0,6.4,5.2,11.6,11.6,11.6c6.4,0,11.6-5.2,11.6-11.6C109.8,385.8,104.7,380.6,98.3,380.6 M98.3,246.4c-6.4,0-11.6,5.2-11.6,11.6
	s5.2,11.6,11.6,11.6c6.4,0,11.6-5.2,11.6-11.6S104.7,246.4,98.3,246.4 M64.9,315.2c-5.5,0-9.9,4.4-9.9,9.9c0,5.5,4.4,9.9,9.9,9.9
	s9.9-4.4,9.9-9.9C74.8,319.6,70.3,315.2,64.9,315.2 M64.9,348.6c-5.5,0-9.9,4.4-9.9,9.9c0,5.5,4.4,9.9,9.9,9.9s9.9-4.4,9.9-9.9
	C74.8,353,70.3,348.6,64.9,348.6 M64.9,281.8c-5.5,0-9.9,4.4-9.9,9.9c0,5.5,4.4,9.9,9.9,9.9s9.9-4.4,9.9-9.9
	C74.8,286.2,70.3,281.8,64.9,281.8 M34.4,316.8c-4.6,0-8.3,3.7-8.3,8.3c0,4.6,3.7,8.3,8.3,8.3c4.6,0,8.3-3.7,8.3-8.3
	C42.7,320.5,39,316.8,34.4,316.8 M307.4,268.6c-5.5,0-9.9,4.4-9.9,9.9c0,5.5,4.4,9.9,9.9,9.9c5.5,0,9.9-4.4,9.9-9.9
	C317.3,273,312.9,268.6,307.4,268.6 M517.8,268.6c-5.5,0-9.9,4.4-9.9,9.9c0,5.5,4.4,9.9,9.9,9.9s9.9-4.4,9.9-9.9
	C527.7,273,523.3,268.6,517.8,268.6 M299.5,392.3h15.8v-88.7h-15.8V392.3z M509.9,392.3h15.8v-88.7h-15.8V392.3z M596.2,319.4v-15.8
	h-23.3v-34.3h-15.8v34.3h-12.7v15.8h12.7v47.5c0,14,11.4,25.4,25.4,25.4h13.7v-15.8h-12.5c-6.4,0-10.8-4.6-10.8-11.1v-45.9H596.2z
	 M387.3,319.4v-15.8H364v-34.3h-15.8v34.3h-12.8v15.8h12.8v47.5c0,14,11.4,25.4,25.4,25.4h13.7v-15.8h-12.5
	c-6.4,0-10.8-4.6-10.8-11.1v-45.9H387.3z M238.4,285.3v18.3h-12.8v15.8h12.8v72.9h15.8v-72.9h25.5v-15.8h-25.5v-18.3
	c0-6.7,4.7-11.7,10.8-11.7h14.7v-15.8h-13.8C250.7,257.7,238.4,270.1,238.4,285.3 M450.7,377.6c-15.9,0-28.7-13.3-28.8-29.7
	c0-16.4,12.9-29.7,28.8-29.7s28.7,13.3,28.8,29.7C479.4,364.3,466.5,377.6,450.7,377.6z M452.2,302.1c-14.4,0-24.4,6.6-30.4,14.1
	v-58.3h-16.2v134.4h16.2v-12.6c6,7.5,16,14.1,30.4,14.1c25,0,43.4-19.7,43.4-45.8c0,0,0,0,0,0C495.6,321.7,477.2,302.1,452.2,302.1z
	 M616.4,384.4h2c1.1,0,1.7-0.5,1.7-1.4c0-0.9-0.6-1.4-1.7-1.4h-2V384.4z M620.9,389.4l-2.5-4h-2v4h-1.1v-8.8h3.1
	c1.7,0,2.8,1,2.8,2.4c0,1.1-0.6,1.9-1.7,2.2l2.6,4.2H620.9z M625,385.2c0-3.9-2.9-6.8-6.8-6.8c-3.9,0-6.8,2.9-6.8,6.8
	c0,3.9,2.9,6.8,6.8,6.8C622.1,392,625,389.1,625,385.2z M610.4,385.2c0-4.5,3.3-7.9,7.9-7.9s7.9,3.3,7.9,7.9c0,4.5-3.4,7.9-7.9,7.9
	S610.4,389.7,610.4,385.2z"/>
</svg>
