<svg width="75" height="20" viewBox="0 0 75 20" fill="none" xmlns="http://www.w3.org/2000/svg">
<g clip-path="url(#clip0_37_95)">
<path d="M74.9915 14.9333C74.9644 14.8452 74.8588 14.7416 74.5164 14.7487C74.3566 14.7515 74.1954 14.7586 74.0385 14.7643C73.8302 14.7728 73.6147 14.7814 73.4036 14.7814C73.2752 14.7814 73.1839 14.7487 73.1297 14.6862C73.0697 14.6153 73.054 14.5031 73.0797 14.354C73.161 13.8941 73.2438 13.4341 73.3265 12.9742C73.5063 11.9733 73.6903 10.9384 73.8644 9.91907C73.8887 9.7771 73.9129 9.63798 73.9372 9.50169C74.0756 8.72514 74.2068 7.99119 74.1312 7.15501C74.0128 5.83474 73.2852 5.01844 72.0282 4.79414C70.5345 4.52725 69.2191 4.76007 68.0064 5.5068C67.7995 5.63457 67.5955 5.77086 67.3972 5.90147C67.2602 5.99232 67.119 6.08602 66.9792 6.17546C66.8707 6.24502 66.7809 6.26915 66.7124 6.24502C66.6439 6.22089 66.5497 6.15416 66.5483 6.02639C66.544 5.59482 66.7309 5.07807 66.594 4.89919C66.3728 4.60675 64.5638 4.91907 64.063 5.23423C63.5094 5.58062 63.9032 5.76518 64.1415 5.82196C65.3641 6.11583 65.3827 6.32594 65.3085 6.84127C65.2629 7.16353 65.1059 8.21549 64.9247 9.43497C64.5837 11.7249 64.1186 14.8623 64.0402 15.4529C63.9745 15.9583 64.2599 16.1811 64.5267 16.2195C64.5581 16.2237 64.5895 16.2266 64.6223 16.2266C64.9476 16.2266 65.2928 15.9937 65.3613 15.5579C65.5582 14.3285 65.8535 12.3722 66.2644 9.57693C66.5355 7.73565 68.0306 5.76092 70.6743 5.76092C70.6843 5.76092 70.6943 5.76092 70.7043 5.76092C71.4462 5.76518 72.0211 5.96251 72.3649 6.33446C72.6403 6.63116 72.763 7.02441 72.7273 7.50141C72.646 8.61299 72.4919 9.64224 72.3293 10.7325C72.2793 11.0647 72.2294 11.4012 72.1809 11.7419C72.0839 12.4233 71.9726 13.1133 71.8642 13.7819C71.7771 14.32 71.6858 14.8779 71.6045 15.4259C71.566 15.6857 71.5917 15.8518 71.6887 15.9653C71.7871 16.0789 71.9512 16.13 72.2237 16.1314C72.2308 16.1314 72.2394 16.1314 72.2465 16.1314C73.1054 16.1314 73.9414 15.8688 74.7318 15.3506C74.9259 15.2229 75.0272 15.061 74.9872 14.9361L74.9915 14.9333Z" fill="#2A2623"/>
<path d="M41.0303 5.23283C39.411 4.40091 37.5977 4.42505 36.1781 5.29529C35.3977 5.77371 34.8784 6.62976 34.8555 7.47729C34.8399 8.0707 35.0496 8.93811 36.1439 9.69336C36.4121 9.87933 36.6974 10.0511 36.9728 10.2172C37.2709 10.3975 37.5791 10.5835 37.8659 10.7865L37.9772 10.8646C38.4594 11.2039 38.9573 11.5559 39.3425 11.9903C39.702 12.3964 39.8704 12.9074 39.8162 13.4313C39.762 13.9537 39.4838 14.4364 39.0529 14.7558C38.4123 15.2314 37.532 15.372 36.6988 15.132C35.8756 14.8949 35.2165 14.3157 34.9354 13.5832C34.8812 13.4412 34.8399 13.2737 34.8013 13.1119C34.7628 12.9515 34.7257 12.7995 34.6772 12.6803C34.5902 12.4659 34.3819 12.2303 34.0794 12.2729C33.6914 12.3282 33.543 12.6874 33.4988 12.8407C33.3247 13.4228 33.4588 14.1298 33.8397 14.6423C34.633 15.7098 35.733 16.1726 37.5149 16.1897C37.5235 16.1897 37.5335 16.1897 37.5449 16.1897C37.7731 16.1897 38.4366 16.1655 39.1114 15.9128C40.3669 15.4444 41.1287 14.5486 41.3171 13.3191C41.494 12.1621 41.0103 11.2209 39.8361 10.4429C39.548 10.2527 39.2469 10.0724 38.9559 9.89779C38.6306 9.7033 38.2953 9.50313 37.9786 9.28734C37.5434 8.99205 37.0498 8.6556 36.6632 8.23538C36.1153 7.63913 36.1524 6.73339 36.7473 6.17405C37.1639 5.78365 37.9615 5.54799 38.6877 5.60193C39.1399 5.63601 39.7691 5.79075 40.2 6.34015L40.2827 6.44662C40.4097 6.60988 40.5024 6.72772 40.6665 6.90091C40.9119 7.16071 41.3099 7.341 41.6438 7.16355C41.9576 7.03578 42.0432 6.62266 41.9634 6.29614C41.8592 5.87309 41.5539 5.52527 41.0289 5.23283H41.0303Z" fill="#2A2623"/>
<path d="M60.1782 14.6082C59.4491 14.7927 59.0368 14.814 58.8841 14.6749C58.8043 14.6025 58.7857 14.479 58.8228 14.2518C59.0083 13.1119 59.2893 11.4026 59.5633 9.74872C59.8315 8.12322 60.1097 6.44236 60.2951 5.29387C60.3322 5.06814 60.3365 4.91766 60.2552 4.82112C60.1739 4.72601 60.0255 4.70613 59.8286 4.70471C59.8201 4.70471 59.8129 4.70471 59.8044 4.70471C58.8499 4.70471 57.8712 4.96593 57.4446 5.14338C57.1921 5.24844 57.068 5.35917 57.078 5.47416C57.0879 5.58773 57.222 5.67291 57.4888 5.73396C58.5289 5.97246 58.6873 6.1925 58.6116 6.69222C58.5075 7.37365 58.3049 8.65843 58.0909 10.0185C57.7728 12.0301 57.4446 14.1099 57.3476 14.8012C57.2777 15.2967 57.3533 15.6417 57.5716 15.8277C57.6943 15.9313 57.8598 15.9838 58.0667 15.9838C58.2307 15.9838 58.4219 15.9512 58.6388 15.8859C59.4149 15.6502 60.0369 15.3975 60.4878 15.1334C60.6319 15.0497 60.7446 14.8609 60.6846 14.7147C60.6518 14.6351 60.542 14.5159 60.1782 14.6082Z" fill="#2A2623"/>
<path d="M60.0596 0C60.0596 0 60.0511 0 60.0468 0C59.3691 0 58.7899 0.56644 58.7784 1.24361C58.7742 1.53038 58.884 1.80437 59.0909 2.0159C59.3206 2.25014 59.6516 2.38785 60.0011 2.39211C60.0054 2.39211 60.0111 2.39211 60.0154 2.39211C60.3478 2.39211 60.6603 2.26576 60.8957 2.03436C61.1353 1.80011 61.268 1.48637 61.2709 1.14991C61.2752 0.501136 60.7544 0.00709824 60.0596 0V0Z" fill="#2A2623"/>
<path d="M18.5214 15.3918C18.3916 15.3393 18.1248 15.2357 17.8123 15.1278C17.5741 15.0454 17.4699 14.8822 17.4713 14.5954C17.4728 14.3597 17.4828 10.7638 17.4685 9.19221C17.4628 8.60164 17.4171 8.08063 17.3301 7.59937C17.089 6.28052 16.4156 5.41169 15.3327 5.01561C14.4482 4.69193 13.4695 4.61953 12.5735 4.81118C11.5605 5.02697 10.6917 5.56927 10.0597 6.37989C9.99118 6.46791 9.91842 6.55025 9.83425 6.64537C9.80571 6.6766 9.77718 6.70925 9.74722 6.74474C9.71298 6.69931 9.67873 6.65388 9.64307 6.60562C9.39197 6.26916 9.07952 5.85178 8.57162 5.44718C7.10498 4.28165 4.87933 4.53577 3.50542 6.0264C3.45691 6.07893 3.40983 6.13003 3.36132 6.18114C3.21009 6.3444 3.05316 6.51192 2.90193 6.69505C2.88481 6.71493 2.86198 6.71067 2.85342 6.70783C2.83773 6.70215 2.82061 6.68654 2.82061 6.6624C2.82061 6.60846 2.82061 6.5247 2.81918 6.42106C2.81633 6.07893 2.81062 5.50681 2.82774 5.10931C2.8363 4.90062 2.79493 4.76291 2.69934 4.68909C2.61516 4.62237 2.49247 4.61101 2.3341 4.65502C1.79909 4.8055 1.22271 4.98722 0.572134 5.21436C0.399503 5.27399 0.316755 5.39182 0.325315 5.56501C0.333875 5.72543 0.398077 5.82339 0.516493 5.85746C0.565 5.87166 0.639188 5.88585 0.717657 5.90147C0.788992 5.91567 0.86318 5.92986 0.907407 5.94122C1.3668 6.06757 1.44813 6.17262 1.44813 6.64111C1.44813 7.05422 1.45098 14.3725 1.45241 14.5968C1.45526 14.8836 1.34968 15.0483 1.11142 15.1292C0.797552 15.2371 0.532186 15.3407 0.402357 15.3932C0.112738 15.5096 -0.0413456 15.7084 0.0100154 15.9015C0.0442561 16.0307 0.179792 16.14 0.305342 16.14H3.99478C4.12033 16.14 4.25444 16.0307 4.2901 15.9015C4.34146 15.7098 4.18738 15.5096 3.89776 15.3932C3.76793 15.3407 3.50114 15.2371 3.18869 15.1292C2.95044 15.0468 2.84629 14.8836 2.84771 14.5968C2.84771 14.5202 2.84771 14.117 2.84771 13.5576C2.84771 12.4063 2.84771 10.6672 2.85342 9.73736C2.85913 8.72373 3.13305 7.81942 3.66806 7.04855C4.33718 6.08603 5.2574 5.66581 6.40447 5.79926C7.32897 5.90715 8.0095 6.45371 8.42895 7.42475C8.62155 7.8691 8.73141 8.36882 8.73997 8.82878C8.76422 10.1902 8.7628 12.923 8.76137 14.09C8.76137 14.3682 8.76137 14.5514 8.76137 14.5968C8.76422 14.8836 8.65865 15.0483 8.42039 15.1292C8.10652 15.2371 7.84115 15.3407 7.71132 15.3932C7.4217 15.5096 7.26762 15.7084 7.31898 15.9015C7.35322 16.0307 7.48876 16.14 7.61431 16.14H11.3037C11.4293 16.14 11.5634 16.0307 11.5991 15.9015C11.6504 15.7098 11.4963 15.5096 11.2067 15.3932C11.0769 15.3407 10.8101 15.2371 10.4977 15.1292C10.2594 15.0468 10.1553 14.8836 10.1567 14.5968C10.1567 14.5514 10.1567 14.3569 10.1567 14.063C10.1567 12.8691 10.1595 10.0752 10.1809 8.68114C10.2023 7.29131 11.2039 6.0988 12.5635 5.84894C13.6093 5.65587 14.491 5.82197 15.1116 6.32879C15.7022 6.81005 16.0218 7.57098 16.0361 8.52924C16.0475 9.28591 16.0447 10.0554 16.0418 10.8007C16.0375 11.8186 16.0332 12.8705 16.0661 13.904C16.0661 13.9125 16.0718 14.3711 16.0732 14.5982C16.076 14.885 15.9705 15.0497 15.7322 15.1306C15.4183 15.2385 15.153 15.3435 15.0231 15.3947C14.7335 15.5111 14.5794 15.7098 14.6308 15.9029C14.665 16.0321 14.8006 16.1414 14.9261 16.1414H18.6156C18.7411 16.1414 18.8752 16.0321 18.9109 15.9029C18.9622 15.7112 18.8082 15.5111 18.5185 15.3947L18.5214 15.3918Z" fill="#2A2623"/>
<path d="M32.4187 4.86089H29.1601C29.0346 4.86089 28.9005 4.9702 28.8648 5.09939C28.8163 5.27968 28.939 5.51818 29.2629 5.60904L29.3413 5.63034C29.5125 5.6786 29.6609 5.71977 29.902 5.80211C29.9648 5.82341 30.009 5.86316 30.0361 5.9242C30.0946 6.05623 30.0661 6.28621 29.9577 6.53749C29.0374 8.6769 27.9489 11.2025 26.8603 13.711C26.8189 13.8004 26.7333 13.8316 26.6663 13.8316C26.5992 13.8316 26.5136 13.799 26.4722 13.7067C25.9643 12.5256 25.4493 11.3231 24.9514 10.159C24.4421 8.96651 23.9142 7.73425 23.3934 6.52329C23.285 6.27202 23.2565 6.04203 23.315 5.91001C23.3421 5.84896 23.3863 5.80921 23.4491 5.78792C23.6189 5.72971 23.7672 5.69706 23.9113 5.66725C23.9998 5.64879 24.084 5.63034 24.1639 5.60762C24.4863 5.51676 24.6104 5.27684 24.5619 5.09797C24.5277 4.96878 24.3921 4.85947 24.2666 4.85947H20.5771C20.4516 4.85947 20.3175 4.96878 20.2818 5.09797C20.2362 5.26549 20.3417 5.48695 20.6756 5.6062C20.7369 5.6275 20.7997 5.64453 20.8596 5.65873C21.1535 5.73255 21.456 5.80921 21.8112 6.5673C22.6587 8.3731 24.0968 11.7121 25.0484 13.9197L25.2225 14.3228C25.4764 14.912 25.709 15.6147 25.5078 16.37C25.3095 17.1153 25.0085 17.9586 24.2766 18.5591C24.0469 18.7465 23.8371 18.826 23.6531 18.7962C23.4648 18.7649 23.2879 18.6173 23.1266 18.3561C23.0995 18.3106 23.0724 18.2652 23.0453 18.2198C22.9783 18.1062 22.9098 17.9869 22.8256 17.8819C22.5831 17.5753 22.1408 17.456 21.7527 17.5894C21.3661 17.7229 21.1307 18.0409 21.1221 18.4398C21.1122 18.9282 21.3904 19.3342 21.9482 19.6494C22.3662 19.885 22.8213 20 23.2707 20C24.0041 20 24.7231 19.6948 25.2424 19.1127C25.5848 18.728 25.8902 18.3277 26.147 17.9188C26.3296 17.6292 26.4879 17.3368 26.6192 17.0486C28.0901 13.8118 31.2189 6.6539 31.2488 6.58434C31.6226 5.82767 31.9622 5.73965 32.2604 5.66157C32.3231 5.64453 32.3831 5.62892 32.4415 5.60762C32.7754 5.48837 32.881 5.26549 32.8353 5.09939C32.7925 4.93897 32.6556 4.86089 32.4173 4.86089H32.4187Z" fill="#2A2623"/>
<path d="M54.9836 15.1022C54.0576 15.477 52.6438 15.6757 51.7307 15.017C51.1029 14.5642 50.3668 13.2439 49.8489 11.5034C49.7661 11.2237 49.7733 11.0874 50.0486 10.9199C50.2155 10.8177 50.3739 10.7041 50.5365 10.5977C51.0487 10.2612 51.578 9.91198 52.0745 9.53577C52.9049 8.90687 53.4085 8.31203 53.7067 7.60931C53.9677 6.99602 53.962 6.37421 53.6938 5.86172C53.4113 5.32226 52.8663 4.94463 52.1601 4.79557C51.6779 4.69335 51.1144 4.67632 50.4823 4.74304C49.4166 4.85661 48.6062 5.29528 47.7188 5.91993C47.5885 6.01173 47.4178 6.13903 47.2066 6.30181C47.1225 6.36712 47.0911 6.3657 47.0911 6.36712C47.0882 6.36286 47.0782 6.34298 47.0911 6.26348V6.25496C47.2452 5.11499 47.6318 2.30124 47.8815 0.519587C47.9171 0.269729 47.8929 0.130603 47.8044 0.0553619C47.7174 -0.0184598 47.5747 -0.0184598 47.3436 0.0539423C46.7501 0.239916 46.1566 0.457122 45.5816 0.66865L45.2449 0.792159C45.1408 0.82907 45.0338 0.8674 44.9311 0.969615C44.8241 1.07609 44.7855 1.21947 44.834 1.33588C44.8754 1.4381 44.991 1.50624 45.1408 1.51618C45.282 1.52612 45.4247 1.5247 45.5645 1.52328C45.6587 1.52328 45.7557 1.52044 45.8513 1.52328C46.0639 1.52896 46.1737 1.55735 46.2279 1.61981C46.2807 1.67944 46.2936 1.78733 46.2707 1.97757C46.2108 2.49574 46.1338 3.02243 46.0596 3.53208C46.041 3.65985 46.0225 3.78904 46.0039 3.9168C45.8969 4.65928 45.7899 5.40318 45.6815 6.14565C45.5559 7.01164 45.4304 7.87904 45.3063 8.74503C45.1893 9.55848 45.0752 10.3734 44.9596 11.1868C44.8797 11.7504 44.7998 12.3154 44.7199 12.8776C44.5915 13.6868 44.4888 14.3569 44.3561 15.2697C44.3347 15.416 44.3062 15.7822 44.5002 16.0051C44.5944 16.113 44.7242 16.1684 44.8854 16.1684C45.3705 16.1684 45.6473 15.883 45.7329 15.2967C45.9112 14.0758 46.2279 12.0585 46.5332 10.3052C46.6517 9.62663 46.8443 8.7507 47.2922 7.99261C48.2838 6.31743 49.3567 5.66723 50.9974 5.75667C51.7093 5.795 52.173 6.20102 52.2372 6.84128C52.2842 7.31828 52.2186 7.91737 51.3669 8.74219C50.7192 9.36825 49.9259 9.80408 49.1584 10.2257C48.9472 10.3421 48.7289 10.4614 48.5178 10.5835C48.201 10.7666 47.9243 10.9852 48.0655 11.404C48.5991 12.9784 50.2698 17.9813 55.1776 15.7666C56.1449 15.2442 55.7083 14.8098 54.9878 15.1022H54.9836Z" fill="#2A2623"/>
</g>
<defs>
<clipPath id="clip0_37_95">
<rect width="75" height="20" fill="white"/>
</clipPath>
</defs>
</svg>
